<svg width="202" height="39" viewBox="0 0 202 39" fill="none" xmlns="http://www.w3.org/2000/svg">
<path d="M23.064 14.336C23.064 17.12 22.104 19.44 20.184 21.296C18.296 23.12 15.4 24.032 11.496 24.032H5.064V38H0.696V4.544H11.496C15.272 4.544 18.136 5.456 20.088 7.28C22.072 9.104 23.064 11.456 23.064 14.336ZM11.496 20.432C13.928 20.432 15.72 19.904 16.872 18.848C18.024 17.792 18.6 16.288 18.6 14.336C18.6 10.208 16.232 8.144 11.496 8.144H5.064V20.432H11.496ZM39.9649 38.432C37.5009 38.432 35.2609 37.872 33.2449 36.752C31.2609 35.632 29.6929 34.048 28.5409 32C27.4209 29.92 26.8609 27.52 26.8609 24.8C26.8609 22.112 27.4369 19.744 28.5889 17.696C29.7729 15.616 31.3729 14.032 33.3889 12.944C35.4049 11.824 37.6609 11.264 40.1569 11.264C42.6529 11.264 44.9089 11.824 46.9249 12.944C48.9409 14.032 50.5249 15.6 51.6769 17.648C52.8609 19.696 53.4529 22.08 53.4529 24.8C53.4529 27.52 52.8449 29.92 51.6289 32C50.4449 34.048 48.8289 35.632 46.7809 36.752C44.7329 37.872 42.4609 38.432 39.9649 38.432ZM39.9649 34.592C41.5329 34.592 43.0049 34.224 44.3809 33.488C45.7569 32.752 46.8609 31.648 47.6929 30.176C48.5569 28.704 48.9889 26.912 48.9889 24.8C48.9889 22.688 48.5729 20.896 47.7409 19.424C46.9089 17.952 45.8209 16.864 44.4769 16.16C43.1329 15.424 41.6769 15.056 40.1089 15.056C38.5089 15.056 37.0369 15.424 35.6929 16.16C34.3809 16.864 33.3249 17.952 32.5249 19.424C31.7249 20.896 31.3249 22.688 31.3249 24.8C31.3249 26.944 31.7089 28.752 32.4769 30.224C33.2769 31.696 34.3329 32.8 35.6449 33.536C36.9569 34.24 38.3969 34.592 39.9649 34.592ZM63.564 15.968C64.332 14.464 65.42 13.296 66.828 12.464C68.268 11.632 70.012 11.216 72.06 11.216V15.728H70.908C66.012 15.728 63.564 18.384 63.564 23.696V38H59.196V11.696H63.564V15.968ZM82.4303 15.296V30.8C82.4303 32.08 82.7023 32.992 83.2463 33.536C83.7903 34.048 84.7343 34.304 86.0782 34.304H89.2943V38H85.3583C82.9263 38 81.1023 37.44 79.8863 36.32C78.6703 35.2 78.0623 33.36 78.0623 30.8V15.296H74.6543V11.696H78.0623V5.072H82.4303V11.696H89.2943V15.296H82.4303ZM96.8426 7.424C96.0106 7.424 95.3066 7.136 94.7306 6.56C94.1546 5.984 93.8666 5.28 93.8666 4.448C93.8666 3.616 94.1546 2.912 94.7306 2.336C95.3066 1.76 96.0106 1.472 96.8426 1.472C97.6426 1.472 98.3146 1.76 98.8586 2.336C99.4346 2.912 99.7226 3.616 99.7226 4.448C99.7226 5.28 99.4346 5.984 98.8586 6.56C98.3146 7.136 97.6426 7.424 96.8426 7.424ZM98.9546 11.696V38H94.5866V11.696H98.9546ZM117.103 15.296H111.583V38H107.215V15.296H103.807V11.696H107.215V9.824C107.215 6.88 107.967 4.736 109.471 3.392C111.007 2.016 113.455 1.328 116.815 1.328V4.976C114.895 4.976 113.535 5.36 112.735 6.128C111.967 6.864 111.583 8.096 111.583 9.824V11.696H117.103V15.296ZM133.668 38.432C131.204 38.432 128.964 37.872 126.948 36.752C124.964 35.632 123.396 34.048 122.244 32C121.124 29.92 120.564 27.52 120.564 24.8C120.564 22.112 121.14 19.744 122.292 17.696C123.476 15.616 125.076 14.032 127.092 12.944C129.108 11.824 131.364 11.264 133.86 11.264C136.356 11.264 138.612 11.824 140.628 12.944C142.644 14.032 144.228 15.6 145.38 17.648C146.564 19.696 147.156 22.08 147.156 24.8C147.156 27.52 146.548 29.92 145.332 32C144.148 34.048 142.532 35.632 140.484 36.752C138.436 37.872 136.164 38.432 133.668 38.432ZM133.668 34.592C135.236 34.592 136.708 34.224 138.084 33.488C139.46 32.752 140.564 31.648 141.396 30.176C142.26 28.704 142.692 26.912 142.692 24.8C142.692 22.688 142.276 20.896 141.444 19.424C140.612 17.952 139.524 16.864 138.18 16.16C136.836 15.424 135.38 15.056 133.812 15.056C132.212 15.056 130.74 15.424 129.396 16.16C128.084 16.864 127.028 17.952 126.228 19.424C125.428 20.896 125.028 22.688 125.028 24.8C125.028 26.944 125.412 28.752 126.18 30.224C126.98 31.696 128.036 32.8 129.348 33.536C130.66 34.24 132.1 34.592 133.668 34.592ZM138.564 3.92L128.34 9.392V6.128L138.564 0.127998V3.92ZM157.267 2.48V38H152.899V2.48H157.267ZM166.968 7.424C166.136 7.424 165.432 7.136 164.856 6.56C164.28 5.984 163.992 5.28 163.992 4.448C163.992 3.616 164.28 2.912 164.856 2.336C165.432 1.76 166.136 1.472 166.968 1.472C167.768 1.472 168.44 1.76 168.984 2.336C169.56 2.912 169.848 3.616 169.848 4.448C169.848 5.28 169.56 5.984 168.984 6.56C168.44 7.136 167.768 7.424 166.968 7.424ZM169.08 11.696V38H164.712V11.696H169.08ZM187.996 38.432C185.532 38.432 183.292 37.872 181.276 36.752C179.292 35.632 177.724 34.048 176.572 32C175.452 29.92 174.892 27.52 174.892 24.8C174.892 22.112 175.468 19.744 176.62 17.696C177.804 15.616 179.404 14.032 181.42 12.944C183.436 11.824 185.692 11.264 188.188 11.264C190.684 11.264 192.94 11.824 194.956 12.944C196.972 14.032 198.556 15.6 199.708 17.648C200.892 19.696 201.484 22.08 201.484 24.8C201.484 27.52 200.876 29.92 199.66 32C198.476 34.048 196.86 35.632 194.812 36.752C192.764 37.872 190.492 38.432 187.996 38.432ZM187.996 34.592C189.564 34.592 191.036 34.224 192.412 33.488C193.788 32.752 194.892 31.648 195.724 30.176C196.588 28.704 197.02 26.912 197.02 24.8C197.02 22.688 196.604 20.896 195.772 19.424C194.94 17.952 193.852 16.864 192.508 16.16C191.164 15.424 189.708 15.056 188.14 15.056C186.54 15.056 185.068 15.424 183.724 16.16C182.412 16.864 181.356 17.952 180.556 19.424C179.756 20.896 179.356 22.688 179.356 24.8C179.356 26.944 179.74 28.752 180.508 30.224C181.308 31.696 182.364 32.8 183.676 33.536C184.988 34.24 186.428 34.592 187.996 34.592Z" fill="white"/>
</svg>
