<svg width="48" height="36" viewBox="0 0 48 36" fill="none" xmlns="http://www.w3.org/2000/svg">
<path d="M0 6C0 4.4087 0.632141 2.88258 1.75736 1.75736C2.88258 0.632141 4.4087 0 6 0H42C43.5913 0 45.1174 0.632141 46.2426 1.75736C47.3679 2.88258 48 4.4087 48 6V30C48 31.5913 47.3679 33.1174 46.2426 34.2426C45.1174 35.3679 43.5913 36 42 36H6C4.4087 36 2.88258 35.3679 1.75736 34.2426C0.632141 33.1174 0 31.5913 0 30V6ZM6 3C5.20435 3 4.44129 3.31607 3.87868 3.87868C3.31607 4.44129 3 5.20435 3 6V6.651L24 19.251L45 6.651V6C45 5.20435 44.6839 4.44129 44.1213 3.87868C43.5587 3.31607 42.7957 3 42 3H6ZM45 10.149L30.876 18.624L45 27.315V10.149ZM44.898 30.777L27.978 20.364L24 22.749L20.022 20.364L3.102 30.774C3.27248 31.4124 3.64895 31.9766 4.17297 32.3792C4.69699 32.7817 5.33924 32.9999 6 33H42C42.6604 33.0001 43.3023 32.7823 43.8263 32.3803C44.3503 31.9784 44.727 31.4148 44.898 30.777ZM3 27.315L17.124 18.624L3 10.149V27.315Z" fill="#656565"/>
</svg>
