<svg width="34" height="34" viewBox="0 0 34 34" fill="none" xmlns="http://www.w3.org/2000/svg">
<path d="M10.7382 25.456H18.1097C21.9366 25.456 24.2361 23.5298 24.2361 20.3733C24.2361 18.0356 22.6218 16.3088 20.1971 16.0585V15.8464C21.962 15.5494 23.3409 13.8735 23.3409 11.9941C23.3409 9.23634 21.3151 7.51807 17.9485 7.51807H10.7382V25.456ZM13.5235 15.1145V9.88122H17.2994C19.3634 9.88122 20.5705 10.8507 20.5705 12.5053C20.5705 14.2066 19.2892 15.1145 16.8285 15.1145H13.5235ZM13.5235 23.0949V17.3143H17.3885C20.0104 17.3143 21.3914 18.2965 21.3914 20.1739C21.3914 22.0746 20.0613 23.0949 17.5497 23.0949H13.5235Z" fill="#656565"/>
<path d="M0 8.48528C0 6.23485 0.893982 4.07657 2.48528 2.48528C4.07657 0.893982 6.23485 0 8.48528 0H25.4558C27.7063 0 29.8646 0.893982 31.4559 2.48528C33.0471 4.07657 33.9411 6.23485 33.9411 8.48528V25.4558C33.9411 27.7063 33.0471 29.8646 31.4559 31.4559C29.8646 33.0471 27.7063 33.9411 25.4558 33.9411H8.48528C6.23485 33.9411 4.07657 33.0471 2.48528 31.4559C0.893982 29.8646 0 27.7063 0 25.4558V8.48528ZM8.48528 2.12132C6.79746 2.12132 5.17877 2.79181 3.98526 3.98526C2.79181 5.17877 2.12132 6.79746 2.12132 8.48528V25.4558C2.12132 27.1437 2.79181 28.7624 3.98526 29.9559C5.17877 31.1493 6.79746 31.8198 8.48528 31.8198H25.4558C27.1437 31.8198 28.7624 31.1493 29.9559 29.9559C31.1493 28.7624 31.8198 27.1437 31.8198 25.4558V8.48528C31.8198 6.79746 31.1493 5.17877 29.9559 3.98526C28.7624 2.79181 27.1437 2.12132 25.4558 2.12132H8.48528Z" fill="#656565"/>
</svg>
