<svg width="74" height="18" viewBox="0 0 74 18" fill="none" xmlns="http://www.w3.org/2000/svg">
<path d="M0 18V0H4.625V6H10.7917V0H15.4167V18H10.7917V10.5H4.625V18H0ZM23.8958 18V4.5H18.5V0H33.9167V4.5H28.5208V18H23.8958ZM37 18V3C37 2.15 37.2955 1.4375 37.8865 0.8625C38.4774 0.2875 39.2097 0 40.0833 0H53.9583C54.8319 0 55.5642 0.2875 56.1552 0.8625C56.7462 1.4375 57.0417 2.15 57.0417 3V18H52.4167V4.5H49.3333V15H44.7083V4.5H41.625V18H37ZM61.6667 18V0H66.2917V13.5H74V18H61.6667Z" fill="#656565"/>
</svg>
