<svg width="33" height="18" viewBox="0 0 33 18" fill="none" xmlns="http://www.w3.org/2000/svg">
<path d="M4.5 18C3.25 18 2.1875 17.5625 1.3125 16.6875C0.4375 15.8125 0 14.75 0 13.5V10.5H4.5V13.5H9V0H13.5V13.5C13.5 14.75 13.0625 15.8125 12.1875 16.6875C11.3125 17.5625 10.25 18 9 18H4.5ZM21 18C20.15 18 19.4375 17.7125 18.8625 17.1375C18.2875 16.5625 18 15.85 18 15V12H22.5V13.5H28.5V10.5H21C20.15 10.5 19.4375 10.2125 18.8625 9.6375C18.2875 9.0625 18 8.35 18 7.5V3C18 2.15 18.2875 1.4375 18.8625 0.8625C19.4375 0.2875 20.15 0 21 0H30C30.85 0 31.5625 0.2875 32.1375 0.8625C32.7125 1.4375 33 2.15 33 3V6H28.5V4.5H22.5V7.5H30C30.85 7.5 31.5625 7.7875 32.1375 8.3625C32.7125 8.9375 33 9.65 33 10.5V15C33 15.85 32.7125 16.5625 32.1375 17.1375C31.5625 17.7125 30.85 18 30 18H21Z" fill="#656565"/>
</svg>
