<svg width="24" height="24" viewBox="0 0 24 24" fill="none" xmlns="http://www.w3.org/2000/svg">
<path d="M15.832 15.064C15.832 16.6 15.5973 17.9013 15.128 18.968C14.68 20.0347 14.072 20.888 13.304 21.528C12.5573 22.168 11.7253 22.6373 10.808 22.936C9.89067 23.2133 8.97333 23.352 8.056 23.352C7.13867 23.352 6.22133 23.2133 5.304 22.936C4.38667 22.6373 3.544 22.168 2.776 21.528C2.02933 20.888 1.42133 20.0347 0.952 18.968C0.504 17.9013 0.28 16.6 0.28 15.064V0.599998H5.4V14.36C5.4 15.1067 5.48533 15.7787 5.656 16.376C5.82667 16.952 6.104 17.4107 6.488 17.752C6.89333 18.072 7.416 18.232 8.056 18.232C8.696 18.232 9.208 18.072 9.592 17.752C9.976 17.4107 10.2533 16.952 10.424 16.376C10.616 15.7787 10.712 15.1067 10.712 14.36V0.599998H15.832V15.064ZM18.565 0.599998H23.621V23H18.565V0.599998Z" fill="#656565"/>
</svg>
