<svg width="63" height="24" viewBox="0 0 63 24" fill="none" xmlns="http://www.w3.org/2000/svg">
<path d="M0.256 0.599998H5.536L7.264 16.024H7.584L9.6 0.599998H14.176L16.192 16.024H16.544L18.24 0.599998H23.52V1.4L20.064 23H13.504L12.064 10.2H11.744L10.272 23H3.712L0.256 1.4V0.599998ZM24.1088 11.8C24.1088 9.09067 24.5461 6.88267 25.4208 5.176C26.2954 3.46933 27.4368 2.22133 28.8448 1.432C30.2741 0.621333 31.8208 0.216 33.4848 0.216C35.1488 0.216 36.6848 0.621333 38.0928 1.432C39.5221 2.22133 40.6741 3.46933 41.5487 5.176C42.4234 6.88267 42.8608 9.09067 42.8608 11.8C42.8608 14.5093 42.4234 16.7173 41.5487 18.424C40.6741 20.1307 39.5221 21.3893 38.0928 22.2C36.6848 22.9893 35.1488 23.384 33.4848 23.384C31.8208 23.384 30.2741 22.9893 28.8448 22.2C27.4368 21.3893 26.2954 20.1307 25.4208 18.424C24.5461 16.7173 24.1088 14.5093 24.1088 11.8ZM29.3568 11.8C29.3568 13.2933 29.5381 14.5413 29.9008 15.544C30.2634 16.5467 30.7541 17.304 31.3728 17.816C32.0128 18.328 32.7168 18.584 33.4848 18.584C34.2528 18.584 34.9568 18.328 35.5968 17.816C36.2368 17.304 36.7381 16.5467 37.1008 15.544C37.4848 14.5413 37.6768 13.2933 37.6768 11.8C37.6768 10.2853 37.4848 9.02667 37.1008 8.024C36.7168 7.02133 36.2048 6.27467 35.5648 5.784C34.9461 5.272 34.2528 5.016 33.4848 5.016C32.7168 5.016 32.0128 5.272 31.3728 5.784C30.7541 6.296 30.2634 7.05333 29.9008 8.056C29.5381 9.05867 29.3568 10.3067 29.3568 11.8ZM44.14 11.8C44.14 9.09067 44.5773 6.88267 45.452 5.176C46.3267 3.46933 47.468 2.22133 48.876 1.432C50.3053 0.621333 51.852 0.216 53.516 0.216C55.18 0.216 56.716 0.621333 58.124 1.432C59.5533 2.22133 60.7053 3.46933 61.58 5.176C62.4547 6.88267 62.892 9.09067 62.892 11.8C62.892 14.5093 62.4547 16.7173 61.58 18.424C60.7053 20.1307 59.5533 21.3893 58.124 22.2C56.716 22.9893 55.18 23.384 53.516 23.384C51.852 23.384 50.3053 22.9893 48.876 22.2C47.468 21.3893 46.3267 20.1307 45.452 18.424C44.5773 16.7173 44.14 14.5093 44.14 11.8ZM49.388 11.8C49.388 13.2933 49.5693 14.5413 49.932 15.544C50.2947 16.5467 50.7853 17.304 51.404 17.816C52.044 18.328 52.748 18.584 53.516 18.584C54.284 18.584 54.988 18.328 55.628 17.816C56.268 17.304 56.7693 16.5467 57.132 15.544C57.516 14.5413 57.708 13.2933 57.708 11.8C57.708 10.2853 57.516 9.02667 57.132 8.024C56.748 7.02133 56.236 6.27467 55.596 5.784C54.9773 5.272 54.284 5.016 53.516 5.016C52.748 5.016 52.044 5.272 51.404 5.784C50.7853 6.296 50.2947 7.05333 49.932 8.056C49.5693 9.05867 49.388 10.3067 49.388 11.8Z" fill="#656565"/>
</svg>
