<svg width="33" height="33" viewBox="0 0 33 33" fill="none" xmlns="http://www.w3.org/2000/svg">
<path d="M26.0555 15.7842C26.0555 14.0352 25.4265 12.8245 24.8881 11.882L24.7231 11.6139C24.0693 10.562 23.498 9.63798 23.498 8.56135C23.498 7.26198 24.4839 6.04923 25.874 6.04923C25.9153 6.04923 25.9551 6.05129 25.9936 6.05542L26.0576 6.0616C23.4507 3.66768 20.0392 2.34108 16.5 2.34498C14.1544 2.3447 11.8455 2.92756 9.78114 4.04112C7.71675 5.15468 5.96159 6.764 4.67358 8.72429C5.00358 8.7346 5.31914 8.74285 5.5852 8.74285C7.06401 8.74285 9.35545 8.56342 9.35545 8.56342C10.1186 8.51804 10.2093 9.63798 9.4462 9.72873C9.4462 9.72873 8.68101 9.81948 7.82714 9.86279L12.9834 25.1954L16.0771 15.9018L13.8703 9.86073C13.1092 9.81535 12.3873 9.72667 12.3873 9.72667C11.6242 9.68129 11.7149 8.51392 12.476 8.55929C12.476 8.55929 14.8149 8.73873 16.205 8.73873C17.6859 8.73873 19.9794 8.55929 19.9794 8.55929C20.7425 8.51392 20.8312 9.63592 20.0681 9.72667C20.0681 9.72667 19.3008 9.81535 18.449 9.86073L23.564 25.0758L24.9748 20.3589L25.0861 20.002C25.643 18.2283 26.0535 16.9186 26.0535 15.7822L26.0555 15.7842ZM2.34501 16.4999C2.3439 19.1582 3.09167 21.7629 4.50263 24.0158C5.9136 26.2687 7.93068 28.0785 10.3228 29.2379L3.56808 10.7373C2.75702 12.5499 2.34014 14.5141 2.34501 16.4999Z" fill="#111111"/>
<path d="M12.5007 30.0775L16.7495 17.7376L21.0993 29.6588C21.1268 29.7276 21.1605 29.7922 21.2004 29.8527C18.3964 30.8411 15.352 30.9198 12.5007 30.0775ZM28.9182 9.70825C28.9815 10.1593 29.0138 10.6446 29.0152 11.1644C29.0152 12.5999 28.747 14.2148 27.9385 16.234L23.6155 28.7328C26.8056 26.8793 29.1456 23.8531 30.1365 20.2992C31.1275 16.7453 30.691 12.945 28.9203 9.70825H28.9182Z" fill="#111111"/>
<path fill-rule="evenodd" clip-rule="evenodd" d="M0 16.5C0 7.40231 7.40231 0 16.5 0C25.5977 0 33 7.40231 33 16.5C33 25.5977 25.5956 33 16.5 33C7.40438 33 0 25.5977 0 16.5ZM0.756938 16.5C0.756938 25.1811 7.81894 32.2431 16.5 32.2431C25.1811 32.2431 32.241 25.1811 32.241 16.5C32.241 7.81687 25.179 0.756938 16.5 0.756938C7.81687 0.756938 0.756938 7.81687 0.756938 16.5Z" fill="#111111"/>
</svg>
